<?xml version="1.0" encoding="UTF-8" standalone="no"?>
<!-- Created with Inkscape (http://www.inkscape.org/) -->

<svg
   xmlns:dc="http://purl.org/dc/elements/1.1/"
   xmlns:cc="http://creativecommons.org/ns#"
   xmlns:rdf="http://www.w3.org/1999/02/22-rdf-syntax-ns#"
   xmlns:svg="http://www.w3.org/2000/svg"
   xmlns="http://www.w3.org/2000/svg"
   xmlns:sodipodi="http://sodipodi.sourceforge.net/DTD/sodipodi-0.dtd"
   xmlns:inkscape="http://www.inkscape.org/namespaces/inkscape"
   width="512"
   height="512"
   viewBox="-64 -64 640 640"
   version="1.1"
   id="svg8"
   inkscape:version="0.92.4 (5da689c313, 2019-01-14)"
   sodipodi:docname="icon.svg"
   inkscape:export-filename="icon_devops.png"
   inkscape:export-xdpi="300"
   inkscape:export-ydpi="300">
  <title
     id="title852">PithyLink Icon</title>
  <defs
     id="defs2" />
  <sodipodi:namedview
     id="base"
     pagecolor="#ffffff"
     bordercolor="#666666"
     borderopacity="1.0"
     inkscape:pageopacity="0.0"
     inkscape:pageshadow="2"
     inkscape:zoom="0.7"
     inkscape:cx="-134.43213"
     inkscape:cy="349.52525"
     inkscape:document-units="px"
     inkscape:current-layer="layer1"
     showgrid="false"
     viewbox-width="512"
     viewbox-height="512"
     inkscape:pagecheckerboard="true"
     units="px"
     width="512px"
     inkscape:window-width="1920"
     inkscape:window-height="1137"
     inkscape:window-x="1672"
     inkscape:window-y="-8"
     inkscape:window-maximized="1"
     viewbox-x="-64"
     viewbox-y="-64" />
  <metadata
     id="metadata5">
    <rdf:RDF>
      <cc:Work
         rdf:about="">
        <dc:format>image/svg+xml</dc:format>
        <dc:type
           rdf:resource="http://purl.org/dc/dcmitype/StillImage" />
        <dc:title>PithyLink Icon</dc:title>
      </cc:Work>
    </rdf:RDF>
  </metadata>
  <g
     inkscape:label="Layer 1"
     inkscape:groupmode="layer"
     id="layer1"
     transform="translate(0,-393.8336)">
    <g
       id="g850">
      <path
         style="fill:#007bff;fill-opacity:1"
         inkscape:connector-curvature="0"
         d="M 64,905.8336 V 441.83355 c 0,-26.51 21.49,-48 48,-48 h 288.00001 c 26.51,0 48,21.49 48,48 V 905.8336 L 256,793.83355 Z"
         id="path21" />
      <path
         style="fill:#ffffff;stroke-width:0.49776772"
         inkscape:connector-curvature="0"
         d="m 290.57714,541.25765 c 29.74012,29.77099 29.33195,77.50144 0.17919,106.81597 -0.0548,0.0597 -0.11946,0.12444 -0.17919,0.18418 l -33.44999,33.44999 c -29.50269,29.50269 -77.50194,29.4987 -107.00015,0 -29.50267,-29.49772 -29.50267,-77.50244 0,-107.00015 l 18.47017,-18.47017 c 4.89804,-4.89803 13.33321,-1.64263 13.58607,5.27933 0.32256,8.82144 1.90446,17.68419 4.82337,26.24281 0.98857,2.898 0.28224,6.10362 -1.88305,8.26891 l -6.51429,6.51429 c -13.95044,13.95044 -14.38797,36.66557 -0.57492,50.75239 13.94944,14.22571 36.87762,14.31033 50.93408,0.25387 l 33.44999,-33.44502 c 14.03257,-14.03256 13.97383,-36.71385 0,-50.68768 -1.84224,-1.83875 -3.69792,-3.26735 -5.14742,-4.26537 a 7.9827006,7.9827006 0 0 1 -3.45799,-6.27486 c -0.19712,-5.25991 1.66653,-10.68011 5.82289,-14.83647 l 10.48,-10.4805 c 2.74817,-2.74817 7.05934,-3.08566 10.24605,-0.86163 a 75.900615,75.900615 0 0 1 10.21519,8.56011 z m 70.15289,-70.15638 c -29.49821,-29.4987 -77.49745,-29.50269 -107.00015,0 l -33.44999,33.44999 c -0.0597,0.0597 -0.12444,0.12445 -0.17919,0.18418 -29.15227,29.31453 -29.56093,77.04498 0.17919,106.81597 a 75.886677,75.886677 0 0 0 10.21469,8.55961 c 3.18671,2.22403 7.49838,1.88604 10.24606,-0.86163 l 10.48,-10.4805 c 4.15636,-4.15636 6.02,-9.57655 5.82288,-14.83647 a 7.9827006,7.9827006 0 0 0 -3.45799,-6.27486 c -1.4495,-0.99802 -3.30518,-2.42661 -5.14742,-4.26537 -13.97383,-13.97383 -14.03256,-36.65511 0,-50.68768 L 281.8881,499.2595 c 14.05647,-14.05647 36.98414,-13.97185 50.93408,0.25386 13.81306,14.08682 13.37602,36.80195 -0.57492,50.75239 l -6.51428,6.51429 c -2.16529,2.16529 -2.87162,5.37091 -1.88306,8.26892 2.91891,8.55861 4.50082,17.42137 4.82337,26.24281 0.25336,6.92195 8.68804,10.17735 13.58607,5.27932 l 18.47017,-18.47017 c 29.50319,-29.49721 29.50319,-77.50193 5e-4,-106.99965 z"
         id="path32" />
    </g>
  </g>
</svg>
